<svg id="Camada_1" data-name="Camada 1" xmlns="http://www.w3.org/2000/svg" viewBox="0 0 432.9 136.67"><defs><style>.cls-1{fill:#fff;}</style></defs><polygon class="cls-1" points="196.16 1.44 182.63 14.97 182.63 28.5 202.92 8.2 196.16 1.44"/><polygon class="cls-1" points="196.16 55.56 182.63 42.03 182.63 28.5 202.92 48.79 196.16 55.56"/><polygon class="cls-1" points="236.74 1.44 250.27 14.97 250.27 28.5 229.98 8.2 236.74 1.44"/><polygon class="cls-1" points="250.27 28.5 236.74 42.03 223.21 28.5 223.21 42.03 229.98 48.79 229.98 48.79 236.74 55.56 243.51 48.79 243.51 48.79 250.27 42.03 250.27 28.5"/><polygon class="cls-1" points="226.6 11.59 216.45 21.73 210.38 27.8 206.3 31.88 206.3 45.41 223.21 28.5 223.21 28.5 226.6 25.12 226.6 11.59"/><polygon class="cls-1" points="46.21 128.61 36.32 101.78 28.71 101.78 18.83 128.61 8.43 101.78 1.11 101.78 14.69 135.23 22.8 135.23 32.54 109.04 42.24 135.23 50.34 135.23 63.77 101.78 56.61 101.78 46.21 128.61"/><path class="cls-1" d="M154.47,118.64a7.11,7.11,0,0,0,2.21-2.69,9.25,9.25,0,0,0,.79-4,10,10,0,0,0-1.54-5.77,8.92,8.92,0,0,0-4.3-3.31,18.2,18.2,0,0,0-6.49-1.06H123.31v33.45h6.62V122.88h12.48a21.6,21.6,0,0,1,4.8.41,3.58,3.58,0,0,1,2.31,1.47,5.76,5.76,0,0,1,.64,3v7.49h6.62v-8a6.69,6.69,0,0,0-1.12-4.21,5.92,5.92,0,0,0-3.36-2,20.42,20.42,0,0,0-2.9-.45,15.39,15.39,0,0,0,1.81-.43A10.6,10.6,0,0,0,154.47,118.64Zm-5.08-2.54a5.87,5.87,0,0,1-4.25,1.4H129.93v-9.82h15.21a6.54,6.54,0,0,1,4.25,1.19,4.18,4.18,0,0,1,1.47,3.46A4.94,4.94,0,0,1,149.39,116.1Z"/><polygon class="cls-1" points="182.36 121.27 202.65 121.27 202.65 115.85 182.36 115.85 182.36 107.52 207.13 107.52 207.13 101.78 175.75 101.78 175.75 135.23 207.18 135.23 207.18 129.49 182.36 129.49 182.36 121.27"/><polygon class="cls-1" points="248.98 129.27 232.15 101.78 225.53 101.78 225.53 135.23 232.15 135.23 232.15 114.06 245.32 135.23 252.74 135.23 265.91 113.97 265.91 135.23 272.53 135.23 272.53 101.78 265.91 101.78 248.98 129.27"/><polygon class="cls-1" points="298.53 121.27 318.82 121.27 318.82 115.85 298.53 115.85 298.53 107.52 323.3 107.52 323.3 101.78 291.92 101.78 291.92 135.23 323.35 135.23 323.35 129.49 298.53 129.49 298.53 121.27"/><polygon class="cls-1" points="373.27 126.27 349.35 101.78 342.74 101.78 342.74 135.23 349.35 135.23 349.35 110.94 373.27 135.23 379.89 135.23 379.89 101.78 373.27 101.78 373.27 126.27"/><polygon class="cls-1" points="431.78 101.78 397.87 101.78 397.87 107.52 411.54 107.52 411.54 135.23 418.16 135.23 418.16 107.52 431.78 107.52 431.78 101.78"/><polygon class="cls-1" points="91.41 101.78 84.25 101.78 69.13 135.23 76.29 135.23 79.47 127.94 81.97 122.2 87.84 108.73 93.75 122.2 86.72 122.2 89.24 127.94 96.27 127.94 99.47 135.23 106.68 135.23 91.41 101.78"/></svg>